<svg id="light" enable-background="new 0 0 24 24" height="512" viewBox="0 0 24 24" width="512" xmlns="http://www.w3.org/2000/svg"><g><path d="m12 24c-6.617 0-12-5.383-12-12s5.383-12 12-12 12 5.383 12 12-5.383 12-12 12zm0-23c-6.065 0-11 4.935-11 11s4.935 11 11 11 11-4.935 11-11-4.935-11-11-11z"/></g><g><path d="m12 19c-.276 0-.5-.224-.5-.5v-13c0-.276.224-.5.5-.5s.5.224.5.5v13c0 .276-.224.5-.5.5z"/></g><g><path d="m12 19c-.128 0-.256-.049-.354-.146l-4-4c-.195-.195-.195-.512 0-.707s.512-.195.707 0l3.647 3.646 3.646-3.646c.195-.195.512-.195.707 0s.195.512 0 .707l-4 4c-.097.097-.225.146-.353.146z"/></g></svg>