<?xml version="1.0" encoding="iso-8859-1"?>
<!-- Generator: Adobe Illustrator 19.0.0, SVG Export Plug-In . SVG Version: 6.00 Build 0)  -->
<svg version="1.1" id="Capa_1" xmlns="http://www.w3.org/2000/svg" xmlns:xlink="http://www.w3.org/1999/xlink" x="0px" y="0px"
	 viewBox="0 0 512 512" style="enable-background:new 0 0 512 512;" xml:space="preserve">
<g>
	<g>
		<path d="M432.701,317.247l-82.913-97.484l73.645-42.016c7.196-4.104,9.701-13.266,5.597-20.461
			c-4.105-7.196-13.269-9.702-20.462-5.597c-6.158,3.513-145.713,83.13-152.567,87.041c-6.888-3.93-146.476-83.566-152.567-87.041
			c-7.196-4.104-16.355-1.601-20.462,5.597c-4.104,7.195-1.6,16.356,5.597,20.461l73.645,42.016L79.3,317.247
			c-5.367,6.311-4.603,15.776,1.708,21.144c6.31,5.369,15.78,4.601,21.144-1.708l86.577-101.792l59.839,34.139
			c4.607,2.628,10.26,2.627,14.865,0l59.839-34.139l86.577,101.792c5.368,6.313,14.838,7.073,21.144,1.708
			C437.304,333.024,438.068,323.558,432.701,317.247z"/>
	</g>
</g>
<g>
	<g>
		<path d="M467,81H45c-24.813,0-45,20.187-45,45v260c0,24.813,20.187,45,45,45h422c24.813,0,45-20.187,45-45V126
			C512,101.187,491.813,81,467,81z M482,386c0,8.271-6.729,15-15,15H45c-8.271,0-15-6.729-15-15V126c0-8.271,6.729-15,15-15h422
			c8.271,0,15,6.729,15,15V386z"/>
	</g>
</g>
<g>
</g>
<g>
</g>
<g>
</g>
<g>
</g>
<g>
</g>
<g>
</g>
<g>
</g>
<g>
</g>
<g>
</g>
<g>
</g>
<g>
</g>
<g>
</g>
<g>
</g>
<g>
</g>
<g>
</g>
</svg>
