<?xml version="1.0" encoding="iso-8859-1"?>
<!-- Generator: Adobe Illustrator 18.0.0, SVG Export Plug-In . SVG Version: 6.00 Build 0)  -->
<!DOCTYPE svg PUBLIC "-//W3C//DTD SVG 1.1//EN" "http://www.w3.org/Graphics/SVG/1.1/DTD/svg11.dtd">
<svg version="1.1" id="Capa_1" xmlns="http://www.w3.org/2000/svg" xmlns:xlink="http://www.w3.org/1999/xlink" x="0px" y="0px"
	 viewBox="0 0 281.488 281.488" style="enable-background:new 0 0 281.488 281.488;" xml:space="preserve">
<g>
	<path d="M140.744,0C63.138,0,0,63.138,0,140.744s63.138,140.744,140.744,140.744s140.744-63.138,140.744-140.744
		S218.351,0,140.744,0z M140.744,263.488C73.063,263.488,18,208.426,18,140.744S73.063,18,140.744,18
		s122.744,55.063,122.744,122.744S208.425,263.488,140.744,263.488z"/>
	<path d="M145.965,76.205c-2.159-4.29-8.283-4.29-10.442,0l-29.619,58.835c-1.957,3.888,0.869,8.474,5.221,8.474h19.899v60.489
		c0,2.483,2.013,4.496,4.497,4.496h10.448c2.483,0,4.497-2.013,4.497-4.496v-60.489h19.899c4.353,0,7.178-4.586,5.221-8.474
		L145.965,76.205z"/>
</g>
<g>
</g>
<g>
</g>
<g>
</g>
<g>
</g>
<g>
</g>
<g>
</g>
<g>
</g>
<g>
</g>
<g>
</g>
<g>
</g>
<g>
</g>
<g>
</g>
<g>
</g>
<g>
</g>
<g>
</g>
</svg>
